<?xml version="1.0" standalone="no"?>
<!DOCTYPE svg PUBLIC "-//W3C//DTD SVG 20010904//EN"
 "http://www.w3.org/TR/2001/REC-SVG-20010904/DTD/svg10.dtd">
<svg version="1.0" xmlns="http://www.w3.org/2000/svg"
 width="619.000000pt" height="647.000000pt" viewBox="0 0 619.000000 647.000000"
 preserveAspectRatio="xMidYMid meet">

<g transform="translate(0.000000,647.000000) scale(0.100000,-0.100000)"
fill="#000000" stroke="none">
<path d="M3065 6215 c-5 -1 -62 -8 -125 -15 -140 -16 -122 -12 -200 -37 -120
-39 -219 -81 -311 -132 -51 -28 -96 -51 -100 -51 -5 0 -9 -4 -9 -8 0 -5 -28
-29 -62 -54 -85 -63 -163 -140 -202 -201 -10 -15 -23 -24 -29 -20 -6 4 -7 1
-2 -7 5 -8 2 -17 -7 -24 -8 -6 -23 -25 -33 -43 -10 -18 -23 -29 -28 -26 -6 3
-7 2 -4 -4 3 -5 -3 -22 -14 -39 -11 -16 -29 -50 -40 -76 -12 -26 -27 -49 -35
-52 -7 -3 -11 -12 -8 -20 3 -8 0 -25 -7 -38 -7 -13 -15 -34 -17 -48 -2 -13 -7
-29 -11 -35 -18 -22 -51 -187 -62 -310 -11 -121 -10 -153 19 -475 17 -190 34
-385 37 -435 11 -166 45 -509 62 -635 19 -140 21 -185 10 -217 -6 -17 -4 -22
14 -25 16 -2 27 -19 45 -67 13 -35 21 -67 18 -72 -3 -5 -1 -9 4 -9 4 0 16 -17
26 -37 26 -56 122 -197 161 -239 19 -20 32 -40 29 -45 -3 -5 2 -6 11 -3 11 5
14 2 9 -10 -4 -9 -3 -16 2 -15 17 4 44 -13 44 -27 0 -8 8 -14 18 -14 9 0 32
-16 50 -35 18 -21 37 -33 44 -29 6 4 8 3 5 -3 -4 -6 5 -14 19 -17 15 -4 23
-10 20 -14 -8 -8 42 -35 194 -105 129 -59 344 -102 495 -100 141 2 366 49 468
96 42 21 80 37 84 37 10 0 144 85 188 120 47 37 205 190 205 200 0 3 8 15 19
26 35 38 151 252 151 279 0 8 8 34 19 58 31 71 49 175 76 432 36 355 46 461
60 645 8 107 17 206 19 220 3 14 10 84 17 155 25 270 10 467 -52 670 -31 102
-133 324 -166 361 -10 12 -43 50 -73 85 -94 109 -218 225 -276 256 -235 129
-416 193 -614 217 -128 16 -137 17 -155 11z m275 -143 c129 -34 231 -72 323
-119 48 -25 94 -51 100 -57 7 -7 55 -46 107 -88 52 -42 109 -95 125 -118 17
-22 42 -54 57 -71 54 -61 221 -429 222 -491 1 -20 4 -34 7 -32 21 13 21 -372
0 -546 -9 -80 -24 -272 -36 -454 -3 -49 -10 -83 -17 -87 -7 -5 -13 -21 -14
-36 -1 -24 -12 -181 -19 -263 -1 -14 -5 -33 -8 -42 -16 -42 -17 -52 -5 -60 10
-6 10 -10 -2 -19 -11 -8 -12 -12 -2 -16 6 -2 12 -16 12 -29 0 -14 -4 -22 -10
-19 -5 3 -10 -1 -10 -10 0 -9 4 -14 9 -11 5 4 5 -10 0 -32 -5 -20 -9 -57 -9
-81 0 -43 -68 -261 -94 -305 -63 -102 -120 -186 -127 -186 -5 0 -9 -6 -9 -12
0 -7 -21 -35 -45 -61 -25 -26 -45 -50 -45 -53 0 -3 -9 -14 -19 -25 -16 -18
-22 -19 -42 -9 -12 7 -32 21 -43 32 -12 11 -37 28 -56 38 -19 10 -53 36 -76
57 -23 21 -54 50 -70 64 -16 14 -46 44 -67 67 -26 28 -50 43 -74 48 -27 5 -56
27 -119 89 -46 46 -84 90 -84 99 0 9 13 22 30 28 60 26 394 345 409 391 2 7
21 35 43 64 22 29 41 60 43 70 2 10 4 19 4 21 1 1 0 4 -1 5 -2 2 4 12 12 22
20 24 90 166 90 182 0 7 4 21 9 31 13 24 24 56 23 64 -1 3 5 12 13 18 8 7 15
19 15 26 0 8 4 22 10 32 25 44 76 246 99 392 49 310 13 536 -121 763 -50 85
-229 266 -310 313 -61 36 -148 72 -198 83 -30 7 -66 17 -80 22 -78 28 -293 28
-410 0 -146 -35 -312 -107 -374 -161 -20 -18 -40 -28 -47 -24 -7 4 -9 3 -5 -4
8 -14 -63 -84 -77 -75 -6 3 -7 1 -3 -6 8 -13 -40 -76 -58 -76 -6 0 -10 -9 -8
-19 3 -14 -1 -17 -13 -12 -13 4 -16 2 -11 -9 7 -20 -4 -46 -17 -38 -6 3 -7 1
-3 -5 6 -9 -35 -85 -55 -102 -8 -7 -21 -41 -25 -65 -1 -11 -13 -56 -24 -100
-31 -114 -38 -304 -15 -410 10 -44 20 -93 23 -110 3 -16 8 -32 12 -35 4 -3 19
-36 33 -75 14 -38 46 -116 71 -173 25 -56 46 -109 46 -117 0 -8 4 -15 9 -15 5
0 15 -16 21 -35 6 -19 15 -35 20 -35 5 0 14 -16 20 -35 6 -19 16 -35 21 -35 5
0 9 -6 9 -14 0 -8 7 -17 16 -20 8 -3 12 -11 9 -17 -4 -6 5 -23 20 -39 16 -17
24 -33 20 -41 -6 -8 -4 -10 5 -4 10 6 12 4 7 -9 -4 -10 -3 -15 3 -11 5 3 18
-11 30 -32 11 -21 25 -45 30 -53 44 -68 69 -122 55 -116 -9 3 -13 2 -10 -4 3
-6 15 -10 26 -10 11 0 19 -7 19 -16 0 -8 -4 -12 -10 -9 -5 3 -10 1 -10 -4 0
-6 7 -11 16 -11 8 0 13 -4 10 -9 -3 -5 2 -15 11 -22 14 -12 15 -11 8 11 l-7
25 26 -24 c14 -14 26 -30 26 -37 0 -7 4 -16 10 -19 6 -3 7 1 4 12 -4 15 -3 14
7 -2 7 -11 35 -42 63 -70 47 -46 110 -115 162 -176 51 -60 417 -393 489 -444
16 -11 55 -41 88 -67 32 -26 75 -57 94 -69 37 -23 40 -45 8 -63 -11 -6 -31
-19 -44 -28 -13 -10 -32 -18 -42 -18 -9 0 -19 -4 -21 -8 -5 -13 -125 -60 -213
-83 -108 -30 -341 -32 -460 -6 -164 37 -353 119 -423 185 -16 16 -62 54 -100
85 -75 60 -195 191 -235 254 -61 98 -141 391 -152 558 -3 55 -13 152 -20 215
-8 63 -17 153 -20 200 -4 47 -13 162 -20 255 -8 94 -21 269 -30 390 -9 120
-18 222 -20 225 -8 12 26 237 50 330 27 109 51 169 99 249 19 31 45 74 58 97
69 121 179 241 308 338 116 87 336 177 525 217 118 25 333 20 445 -9z m-45
-434 c84 -30 86 -34 51 -150 -14 -46 -26 -99 -26 -117 0 -32 0 -32 46 -29 53
4 59 11 95 130 13 43 29 78 36 78 35 0 228 -182 216 -204 -3 -6 -3 -8 2 -4 18
17 112 -143 150 -254 42 -125 49 -196 31 -343 -8 -71 -24 -157 -36 -189 -19
-57 -85 -186 -99 -196 -4 -3 -33 -40 -64 -82 -38 -52 -68 -82 -94 -94 -21 -10
-46 -24 -55 -32 -10 -8 -18 -11 -18 -6 0 5 -7 -1 -15 -13 -9 -13 -28 -23 -48
-25 -20 -2 -32 -8 -32 -18 0 -21 -174 -80 -257 -87 -47 -4 -68 -2 -68 5 0 10
-69 11 -90 2 -3 -1 -9 -1 -15 0 -16 4 -56 10 -110 16 -27 3 -61 7 -75 9 -14 2
-29 4 -33 4 -5 1 -5 6 -1 13 5 7 3 8 -5 3 -18 -11 -96 26 -79 37 9 6 6 7 -8 4
-29 -9 -126 56 -210 142 -88 88 -117 130 -150 217 -107 281 -119 461 -45 665
32 86 84 183 94 173 4 -3 7 3 7 14 0 23 33 57 44 46 4 -5 6 -1 4 7 -1 8 4 14
12 15 8 0 14 8 12 17 -3 21 135 134 216 176 64 33 88 40 77 22 -3 -5 0 -7 8
-4 8 3 18 0 23 -7 4 -7 3 -10 -2 -6 -5 3 -10 -14 -11 -36 -1 -23 -11 -76 -22
-117 -31 -111 -30 -117 24 -122 42 -3 46 -1 59 27 14 30 42 135 67 248 8 39
17 57 28 58 13 1 13 2 -1 6 -30 8 -20 22 20 26 20 3 91 4 157 2 96 -3 134 -8
190 -27z m-505 -28 c0 -5 -4 -10 -10 -10 -5 0 -10 5 -10 10 0 6 5 10 10 10 6
0 10 -4 10 -10z m950 -1485 c-8 -9 -14 -28 -15 -42 0 -14 -7 -30 -15 -37 -8
-6 -15 -27 -15 -46 0 -20 -12 -56 -27 -83 -16 -26 -28 -50 -28 -52 0 -2 -18
-30 -40 -62 -22 -32 -55 -79 -73 -105 -17 -26 -37 -48 -43 -48 -6 0 -17 -12
-25 -26 -15 -29 -146 -154 -160 -154 -5 0 -9 -6 -9 -13 0 -17 -61 -63 -77 -59
-7 2 -13 -2 -13 -8 0 -6 -23 -22 -52 -35 l-52 -24 -126 127 c-116 118 -205
224 -291 347 -55 78 -140 225 -130 225 5 0 11 -7 15 -15 3 -8 17 -15 31 -15
14 0 34 -4 45 -10 11 -5 30 -15 42 -22 13 -6 54 -24 93 -41 66 -28 80 -30 232
-34 120 -3 176 0 220 11 32 8 82 17 110 21 29 4 55 11 59 16 3 5 18 9 33 9 15
0 48 13 72 30 24 16 68 37 97 45 46 14 57 23 54 46 -1 4 8 15 20 25 20 18 21
18 15 1 -4 -11 -3 -16 3 -12 6 3 10 12 10 20 0 14 40 48 48 40 3 -2 -1 -12 -8
-20z"/>
<path d="M2586 3675 c4 -8 10 -15 15 -15 4 0 6 7 3 15 -4 8 -10 15 -15 15 -4
0 -6 -7 -3 -15z"/>
<path d="M2570 4916 c-6 -13 -10 -36 -8 -51 4 -36 47 -50 122 -38 50 8 51 9
54 45 4 44 -15 58 -72 53 -21 -2 -48 0 -61 5 -18 7 -25 4 -35 -14z"/>
<path d="M3469 4929 c-7 -4 -18 -5 -25 -2 -11 4 -44 -32 -44 -48 0 -3 11 -18
25 -33 19 -21 33 -26 69 -26 51 0 96 17 96 36 0 7 2 19 6 27 11 30 -93 67
-127 46z"/>
<path d="M2828 4619 c-39 -23 -10 -165 47 -228 37 -41 119 -71 193 -71 39 0
162 37 162 48 0 4 14 13 30 20 17 8 30 20 30 29 0 8 6 21 13 28 6 8 18 21 25
30 7 8 13 38 14 66 0 60 -22 92 -61 87 -32 -4 -69 -69 -63 -110 2 -15 0 -28
-5 -28 -5 0 -26 -16 -47 -36 -38 -36 -40 -36 -98 -30 -33 3 -69 12 -80 20 -34
24 -68 83 -68 119 0 19 -6 39 -13 45 -20 17 -61 23 -79 11z"/>
<path d="M3420 4129 c0 -6 -7 -17 -15 -26 -9 -8 -13 -18 -10 -22 4 -3 15 5 25
19 22 28 25 40 10 40 -5 0 -10 -5 -10 -11z"/>
<path d="M1970 5645 c-11 -13 -10 -14 4 -9 9 3 16 10 16 15 0 13 -6 11 -20 -6z"/>
<path d="M5105 4696 c-53 -13 -149 -59 -160 -76 -4 -6 -12 -7 -18 -4 -7 4 -9
4 -5 -1 10 -11 -11 -37 -23 -29 -5 3 -8 2 -7 -3 5 -13 -28 -53 -37 -45 -5 4
-5 1 -1 -5 4 -7 2 -21 -3 -32 -28 -52 -40 -130 -30 -198 10 -67 82 -349 118
-468 19 -61 76 -266 131 -475 17 -63 40 -144 51 -179 15 -51 17 -66 7 -73 -10
-6 -10 -8 0 -8 7 0 11 -4 7 -9 -3 -6 -46 -10 -95 -9 -78 1 -96 -3 -145 -26
-76 -38 -138 -102 -222 -231 -40 -60 -76 -114 -80 -120 -4 -5 -37 -55 -73
-109 -36 -55 -69 -104 -75 -110 -5 -6 -21 -29 -36 -51 -52 -83 -164 -250 -170
-255 -3 -3 -19 -25 -34 -50 -65 -106 -159 -230 -174 -230 -14 0 -14 -2 -1 -10
14 -9 7 -14 -13 -11 -5 1 -6 -3 -3 -8 8 -12 -132 -217 -145 -213 -6 1 -8 -2
-4 -8 4 -6 -26 -57 -66 -113 -40 -56 -90 -127 -111 -159 l-40 -56 32 -114 c17
-62 39 -133 47 -158 8 -25 32 -101 53 -170 21 -69 54 -177 73 -240 74 -242 98
-331 91 -342 -5 -7 -3 -8 6 -3 10 6 12 3 8 -13 -4 -12 -3 -20 1 -17 5 2 14
-15 21 -38 17 -59 26 -66 68 -61 55 7 326 76 487 123 17 5 163 46 325 91 162
45 301 84 309 86 16 5 11 93 -14 234 -19 104 -16 188 10 314 18 88 66 183 180
356 45 69 88 136 95 149 7 14 17 30 21 35 12 15 99 148 99 151 0 2 26 43 58
91 84 128 195 353 231 469 54 178 71 288 71 470 0 90 -4 186 -9 212 -6 26 -17
95 -26 152 -18 113 -53 257 -116 476 -23 77 -47 164 -55 193 -23 86 -65 235
-144 512 -17 58 -30 110 -30 117 0 6 -5 24 -12 40 -6 15 -12 30 -12 33 -1 3
-10 18 -21 33 -109 155 -254 226 -390 193z m173 -132 c17 -7 32 -16 32 -19 0
-3 -5 -3 -12 1 -7 4 -8 3 -4 -5 4 -7 13 -10 19 -8 16 5 40 -20 32 -33 -3 -6 1
-7 10 -4 11 5 14 2 9 -10 -4 -11 -2 -16 6 -14 21 5 57 -106 181 -547 17 -60
39 -139 49 -175 11 -36 44 -155 75 -265 30 -110 61 -222 69 -250 76 -266 86
-566 27 -800 -46 -182 -105 -340 -124 -328 -6 4 -7 1 -2 -6 4 -7 -1 -31 -11
-54 -15 -36 -93 -172 -116 -202 -4 -5 -40 -59 -80 -120 -40 -60 -75 -112 -78
-115 -3 -3 -43 -61 -89 -130 -46 -69 -88 -126 -92 -128 -5 -2 -9 -10 -9 -18 0
-8 -14 -42 -30 -75 -100 -197 -133 -415 -95 -616 8 -43 15 -79 15 -81 0 -12
-287 -97 -465 -137 -33 -8 -91 -24 -130 -35 -163 -49 -378 -101 -385 -93 -7 7
-67 199 -99 318 -8 28 -41 138 -113 380 -17 55 -44 147 -60 205 l-30 106 79
114 c44 63 92 134 107 158 16 25 31 40 38 36 6 -4 8 -3 4 4 -5 8 70 130 94
152 3 3 10 13 15 22 6 10 26 41 46 70 20 29 62 91 92 138 31 47 72 108 92 135
20 28 61 88 92 135 125 190 216 325 223 330 3 3 29 39 57 80 165 248 189 274
266 289 31 7 66 7 88 2 47 -11 142 -74 157 -103 22 -46 33 -128 21 -171 -13
-49 -87 -169 -100 -162 -5 4 -6 0 -3 -8 3 -8 -28 -64 -68 -125 -40 -62 -106
-165 -145 -229 -40 -65 -102 -165 -137 -223 -36 -58 -73 -114 -83 -124 -12
-13 -13 -17 -3 -12 8 4 5 -1 -7 -12 -12 -11 -19 -23 -15 -26 3 -4 2 -10 -4
-14 -6 -4 -20 -28 -32 -54 l-21 -47 31 -26 c17 -14 36 -24 42 -22 16 5 78 89
148 202 34 55 65 102 70 103 4 2 8 10 8 17 0 11 153 250 169 265 9 8 38 59 68
117 14 29 30 50 36 46 6 -3 7 -1 3 5 -3 6 0 16 7 24 24 24 116 192 133 243 22
67 19 245 -6 245 -11 0 -34 67 -80 230 -22 80 -68 242 -101 360 -34 118 -78
278 -99 355 -22 77 -55 196 -75 265 -43 151 -56 230 -50 294 6 58 17 80 63
129 34 35 62 50 46 25 -4 -7 -3 -8 5 -4 6 4 9 11 6 16 -22 36 144 47 223 14z"/>
<path d="M945 4675 c-27 -9 -58 -13 -67 -11 -10 2 -16 1 -15 -3 1 -4 -20 -29
-47 -56 -51 -51 -109 -137 -112 -164 0 -9 -13 -54 -27 -101 -14 -47 -33 -118
-43 -157 -9 -40 -20 -70 -25 -67 -5 3 -6 -2 -3 -10 3 -8 -35 -178 -84 -378
-50 -200 -98 -398 -108 -440 -10 -43 -21 -78 -26 -78 -4 0 -7 -10 -7 -22 1
-13 -5 -75 -14 -138 -17 -121 -32 -261 -29 -271 1 -4 6 -74 12 -156 8 -120 18
-175 46 -274 19 -68 41 -137 49 -154 7 -16 19 -51 25 -77 7 -27 16 -48 20 -48
4 0 8 -6 7 -13 -1 -37 5 -57 27 -82 14 -16 23 -32 21 -36 -6 -9 51 -80 58 -73
3 3 3 -3 1 -14 -4 -13 3 -26 20 -40 14 -11 26 -25 26 -31 0 -6 5 -11 10 -11 6
0 10 -6 9 -12 -3 -26 1 -51 8 -45 10 11 33 -13 33 -34 0 -11 4 -18 9 -17 8 3
80 -72 81 -84 0 -4 14 -22 30 -40 17 -18 30 -38 30 -44 0 -6 7 -17 15 -24 8
-7 15 -21 15 -31 0 -10 4 -21 10 -24 6 -4 7 1 4 12 -15 41 140 -209 180 -292
73 -151 81 -187 80 -370 0 -108 -5 -170 -14 -190 -11 -26 -17 -103 -8 -109 2
-1 95 -26 208 -54 113 -29 275 -70 360 -93 85 -23 191 -49 235 -59 44 -10 125
-30 180 -45 136 -36 193 -45 204 -31 14 19 89 284 232 826 l88 335 -19 37
c-10 20 -16 39 -13 42 4 3 2 6 -4 6 -6 0 -27 24 -46 53 -20 30 -43 60 -52 67
-9 7 -33 39 -53 69 -20 31 -42 62 -49 69 -22 23 -248 335 -288 397 -101 157
-100 156 -161 224 -43 49 -98 125 -201 281 -34 52 -67 102 -73 110 -5 8 -43
65 -82 125 -81 123 -133 179 -200 219 -54 31 -143 48 -190 36 -18 -4 -54 -11
-80 -15 -41 -5 -47 -4 -42 9 3 9 16 17 28 17 14 1 16 3 5 6 -15 4 -15 11 2 91
10 48 43 184 73 302 30 118 79 312 109 430 88 344 100 410 87 461 -34 127
-115 238 -207 281 -60 28 -176 34 -248 13z m203 -128 c59 -32 114 -76 107 -88
-4 -5 -2 -9 3 -9 13 0 32 -71 32 -121 0 -46 -49 -261 -145 -634 -31 -121 -64
-250 -72 -287 -9 -38 -20 -68 -24 -68 -5 0 -6 -6 -3 -14 6 -15 -84 -376 -97
-390 -5 -6 -9 -16 -9 -24 0 -8 -6 -28 -14 -45 -8 -18 -19 -61 -24 -96 -10 -71
-4 -108 32 -181 12 -25 21 -53 18 -62 -2 -10 1 -18 7 -18 6 0 11 -7 11 -16 0
-8 5 -12 10 -9 6 3 10 -1 10 -10 0 -9 -5 -13 -11 -9 -8 4 -8 1 0 -14 6 -12 17
-19 25 -16 16 6 31 -29 21 -46 -3 -5 2 -10 12 -10 22 -1 62 -58 87 -122 10
-27 22 -48 27 -48 5 0 9 -7 9 -15 0 -8 5 -15 11 -15 6 0 9 -9 6 -20 -3 -12 -1
-17 5 -14 5 3 12 -3 15 -15 3 -11 9 -19 13 -16 5 3 6 -5 3 -17 -4 -19 -3 -20
6 -8 9 13 11 13 11 -2 0 -9 -8 -22 -17 -27 -10 -6 -13 -11 -8 -11 6 0 22 8 35
17 22 15 24 15 12 1 -21 -26 -11 -63 16 -62 15 0 21 -5 20 -15 -2 -10 6 -17
20 -19 22 -3 29 -16 15 -25 -5 -2 -3 -2 4 -1 7 2 35 -32 62 -74 28 -42 57 -85
66 -95 9 -10 26 -35 38 -55 12 -20 29 -44 37 -53 8 -9 26 -29 39 -45 l25 -30
21 21 c37 34 39 60 8 117 -15 29 -37 67 -49 83 -11 17 -28 46 -38 65 -9 19
-28 53 -41 75 -13 22 -27 47 -31 55 -4 8 -14 23 -23 32 -31 33 -41 47 -41 58
0 5 -4 10 -9 10 -11 0 -46 59 -114 190 -24 47 -61 103 -82 125 -21 22 -34 34
-30 26 6 -10 4 -12 -4 -7 -7 5 -10 14 -7 21 2 7 -4 15 -16 18 -11 3 -17 10
-14 15 8 14 -4 43 -15 36 -5 -3 -6 2 -3 10 4 11 0 16 -10 16 -9 0 -16 6 -16
14 0 7 -7 20 -16 27 -26 22 -54 97 -54 145 0 58 23 112 62 146 42 36 128 82
128 69 0 -6 -5 -11 -12 -11 -6 0 -9 -2 -6 -5 8 -8 39 6 33 15 -10 16 30 20 81
10 78 -16 101 -42 267 -290 28 -41 54 -77 57 -80 13 -10 90 -129 90 -139 0 -6
8 -11 18 -11 10 0 26 -15 36 -35 10 -19 27 -43 36 -53 18 -19 161 -230 235
-347 21 -33 53 -78 71 -101 19 -22 31 -44 27 -47 -3 -4 -1 -7 6 -7 7 0 9 -5 5
-12 -4 -6 -3 -8 3 -5 6 4 24 -13 42 -37 33 -47 39 -62 19 -50 -7 4 -10 4 -6 0
3 -4 9 -7 13 -7 3 1 16 -11 29 -26 28 -35 126 -180 126 -188 0 -3 4 -11 10
-18 137 -167 146 -183 135 -224 -5 -15 -9 -30 -10 -33 -1 -3 -5 -24 -9 -48 -4
-23 -11 -40 -14 -38 -4 2 -7 -8 -8 -22 0 -15 -20 -99 -43 -187 -24 -88 -49
-185 -56 -215 -8 -30 -19 -71 -25 -90 -6 -19 -15 -57 -20 -83 -5 -27 -16 -63
-24 -80 -8 -18 -16 -57 -19 -87 -6 -67 -25 -110 -47 -110 -9 0 -113 25 -231
55 -118 31 -259 67 -314 80 -55 13 -127 31 -160 40 -33 9 -85 22 -115 29 -113
27 -140 38 -146 62 -3 13 -2 29 2 36 4 7 10 54 12 106 7 164 -29 340 -102 496
-38 83 -108 203 -125 216 -7 5 -29 42 -76 125 -13 22 -43 60 -67 86 -34 36
-111 164 -113 189 -1 3 -11 21 -23 40 -13 19 -25 47 -29 62 -3 16 -10 28 -14
28 -5 0 -14 10 -20 23 -22 48 -41 77 -50 77 -5 0 -8 3 -7 8 2 7 -30 80 -72
167 -11 22 -20 46 -20 53 0 6 -4 12 -10 12 -5 0 -7 7 -4 15 4 10 0 15 -15 15
-14 0 -21 6 -21 18 0 10 -5 23 -12 30 -7 7 -9 12 -5 12 3 0 -2 19 -12 43 -22
51 -28 86 -41 236 -16 191 12 383 111 761 28 107 54 211 59 230 25 108 170
674 185 725 16 54 41 101 77 146 44 54 188 68 266 26z m132 -2518 c0 -6 -4 -7
-10 -4 -5 3 -10 11 -10 16 0 6 5 7 10 4 6 -3 10 -11 10 -16z"/>
<path d="M1210 4486 c0 -2 8 -10 18 -17 15 -13 16 -12 3 4 -13 16 -21 21 -21
13z"/>
<path d="M2074 1921 c0 -11 5 -17 13 -14 10 4 11 9 2 19 -15 18 -15 18 -15 -5z"/>
<path d="M766 4583 c-6 -14 -5 -15 5 -6 7 7 10 15 7 18 -3 3 -9 -2 -12 -12z"/>
<path d="M1178 3093 c7 -3 16 -2 19 1 4 3 -2 6 -13 5 -11 0 -14 -3 -6 -6z"/>
<path d="M3963 1815 c0 -8 4 -12 9 -9 5 3 6 10 3 15 -9 13 -12 11 -12 -6z"/>
<path d="M810 1544 c0 -6 7 -19 16 -30 14 -18 14 -18 3 6 -14 31 -19 36 -19
24z"/>
</g>
</svg>
